<?xml version="1.0" encoding="iso-8859-1"?>
<!-- Generator: Adobe Illustrator 18.1.1, SVG Export Plug-In . SVG Version: 6.00 Build 0)  -->
<svg version="1.1" id="Capa_1" xmlns="http://www.w3.org/2000/svg" xmlns:xlink="http://www.w3.org/1999/xlink" x="0px" y="0px"
	 viewBox="0 0 493 493" style="enable-background:new 0 0 493 493;" xml:space="preserve">
<g fill="#37464F">
	<g>
		<path d="M126.933,493h239.133c38.817,0,70.267-30.6,70.267-69.417V268.317c0-31.45-19.833-58.367-51-67.15V126.65
			C385.333,57.233,330.083,0,260.667,0h-28.333C162.917,0,106.25,56.95,106.25,126.367c0,9.35,7.65,17,17,17s17-7.933,17-17.283
			C140.25,75.367,181.617,34,232.333,34h28.333c50.717,0,90.667,41.933,90.667,92.65v71.683h-224.4
			c-38.817,0-70.267,31.45-70.267,70.267v155.267C56.667,462.4,88.117,493,126.933,493z M402.333,422.733
			c0,20.117-16.15,36.267-36.267,36.267H126.933c-20.117,0-36.267-16.15-36.267-36.267V268.6c0-20.117,16.15-36.267,36.267-36.267
			h239.133c20.117,0,36.267,16.15,36.267,36.267L402.333,422.733L402.333,422.733z"/>
		<path d="M240.833,416.5c9.35,0,17-7.65,17-17v-53.833c0-9.35-7.65-17-17-17c-9.35,0-17,7.65-17,17V399.5
			C223.833,408.85,231.483,416.5,240.833,416.5z"/>
	</g>
</g>
<g>
</g>
<g>
</g>
<g>
</g>
<g>
</g>
<g>
</g>
<g>
</g>
<g>
</g>
<g>
</g>
<g>
</g>
<g>
</g>
<g>
</g>
<g>
</g>
<g>
</g>
<g>
</g>
<g>
</g>
</svg>
