<?xml version="1.0" encoding="utf-8"?><!-- Generator: Adobe Illustrator 18.0.0, SVG Export Plug-In . SVG Version: 6.00 Build 0)  --><!DOCTYPE svg PUBLIC "-//W3C//DTD SVG 1.1//EN" "http://www.w3.org/Graphics/SVG/1.1/DTD/svg11.dtd"><svg version="1.1" id="Layer_1" xmlns="http://www.w3.org/2000/svg" xmlns:xlink="http://www.w3.org/1999/xlink" x="0px" y="0px"	 viewBox="0 0 48 48" enable-background="new 0 0 48 48" xml:space="preserve"><path fill="#E5613B" d="M45.5,19.3L24.8,2.3c-0.5-0.4-1.1-0.4-1.6,0L2.5,19.3c-0.5,0.4-0.6,1.2-0.2,1.7l0.6,0.7	c0.4,0.5,1.2,0.6,1.8,0.2l1.3-1v23.8c0,0.7,0.6,1.2,1.2,1.2h33.7c0.7,0,1.2-0.6,1.2-1.2V20.9l1.3,1c0.5,0.4,1.3,0.4,1.8-0.2l0.6-0.7	C46.2,20.6,46.1,19.8,45.5,19.3L45.5,19.3z M38.7,42.6H9.3V18.3L24,6.1l14.7,12.2V42.6z M38.7,42.6"/><path fill="#E5613B" d="M32,26.9c-0.3-0.3-0.6-0.4-1-0.4h-0.5v-2.8c0-1.8-0.6-3.3-1.9-4.6c-1.3-1.3-2.8-1.9-4.6-1.9	s-3.3,0.6-4.6,1.9c-1.3,1.3-1.9,2.8-1.9,4.6v2.8H17c-0.4,0-0.7,0.1-1,0.4c-0.3,0.3-0.4,0.6-0.4,1v8.4c0,0.4,0.1,0.7,0.4,1	c0.3,0.3,0.6,0.4,1,0.4H31c0.4,0,0.7-0.1,1-0.4c0.3-0.3,0.4-0.6,0.4-1v-8.4C32.4,27.5,32.3,27.2,32,26.9L32,26.9z M27.7,26.5h-7.5	v-2.8c0-1,0.4-1.9,1.1-2.7c0.7-0.7,1.6-1.1,2.7-1.1s1.9,0.4,2.7,1.1c0.7,0.7,1.1,1.6,1.1,2.7V26.5z M27.7,26.5"/></svg>