<?xml version="1.0" encoding="utf-8"?><!-- Generator: Adobe Illustrator 18.0.0, SVG Export Plug-In . SVG Version: 6.00 Build 0)  --><!DOCTYPE svg PUBLIC "-//W3C//DTD SVG 1.1//EN" "http://www.w3.org/Graphics/SVG/1.1/DTD/svg11.dtd"><svg version="1.1" id="Layer_1" xmlns="http://www.w3.org/2000/svg" xmlns:xlink="http://www.w3.org/1999/xlink" x="0px" y="0px"	 viewBox="0 0 48 48" enable-background="new 0 0 48 48" xml:space="preserve"><g>	<path fill="#E972A0" d="M24,2C11.8,2,2,11.8,2,24s9.8,22,22,22s22-9.8,22-22S36.2,2,24,2z M34.8,32.7l-2.2,2.2		c-0.8,0.8-1.8,1.2-3,1.2c-1.2,0-2.2-0.4-3-1.3l-3.1-3.1c-0.8-0.8-1.2-1.8-1.2-3c0-1.2,0.4-2.2,1.3-3.1l-1.3-1.3		c-0.9,0.9-1.9,1.3-3.1,1.3c-1.2,0-2.2-0.4-3-1.2l-3.1-3.1c-0.8-0.8-1.2-1.8-1.2-3c0-1.2,0.4-2.2,1.3-3l2.2-2.2		c0.8-0.8,1.8-1.2,3-1.2c1.2,0,2.2,0.4,3,1.3l3.1,3.1c0.8,0.8,1.2,1.8,1.2,3c0,1.2-0.4,2.2-1.3,3.1l1.3,1.3c0.8-0.9,1.9-1.3,3.1-1.3		c1.2,0,2.2,0.4,3,1.2l3.1,3.1c0.8,0.8,1.2,1.8,1.2,3C36.1,30.9,35.7,31.9,34.8,32.7z"/>	<path fill="#E972A0" d="M19.4,15.2c-0.3-0.3-0.6-0.4-1-0.4c-0.4,0-0.7,0.1-1,0.4l-2.2,2.2c-0.3,0.3-0.4,0.6-0.4,1		c0,0.4,0.1,0.7,0.4,1l3.1,3.1c0.3,0.3,0.6,0.4,1,0.4c0.4,0,0.8-0.2,1.1-0.5c0,0-0.1-0.1-0.3-0.3c-0.2-0.2-0.3-0.3-0.3-0.3		c-0.1-0.1-0.1-0.2-0.2-0.3c-0.1-0.1-0.2-0.3-0.2-0.4c0-0.1-0.1-0.3-0.1-0.4c0-0.4,0.1-0.7,0.4-1c0.3-0.3,0.6-0.4,1-0.4		c0.1,0,0.3,0,0.4,0.1c0.1,0,0.2,0.1,0.4,0.2c0.1,0.1,0.2,0.2,0.3,0.2c0.1,0.1,0.2,0.2,0.3,0.3c0.2,0.2,0.2,0.3,0.3,0.3		c0.3-0.3,0.5-0.7,0.5-1.1c0-0.4-0.1-0.7-0.4-1L19.4,15.2z"/>	<path fill="#E972A0" d="M29.8,25.6c-0.3-0.3-0.6-0.4-1-0.4c-0.4,0-0.8,0.2-1.1,0.5c0,0,0.1,0.1,0.3,0.3c0.2,0.2,0.3,0.3,0.3,0.3		c0.1,0.1,0.1,0.2,0.2,0.3c0.1,0.1,0.2,0.3,0.2,0.4c0,0.1,0.1,0.3,0.1,0.4c0,0.4-0.1,0.7-0.4,1c-0.3,0.3-0.6,0.4-1,0.4		c-0.1,0-0.3,0-0.4-0.1c-0.1,0-0.2-0.1-0.4-0.2c-0.1-0.1-0.2-0.2-0.3-0.2c-0.1-0.1-0.2-0.2-0.3-0.3c-0.2-0.2-0.2-0.3-0.3-0.3		c-0.3,0.3-0.5,0.7-0.5,1.1c0,0.4,0.1,0.7,0.4,1l3.1,3.1c0.3,0.3,0.6,0.4,1,0.4c0.4,0,0.7-0.1,1-0.4l2.2-2.2c0.3-0.3,0.4-0.6,0.4-1		c0-0.4-0.1-0.7-0.4-1L29.8,25.6z"/></g></svg>