<?xml version="1.0" encoding="utf-8"?><!-- Generator: Adobe Illustrator 18.0.0, SVG Export Plug-In . SVG Version: 6.00 Build 0)  --><!DOCTYPE svg PUBLIC "-//W3C//DTD SVG 1.1//EN" "http://www.w3.org/Graphics/SVG/1.1/DTD/svg11.dtd"><svg version="1.1" id="Layer_1" xmlns="http://www.w3.org/2000/svg" xmlns:xlink="http://www.w3.org/1999/xlink" x="0px" y="0px"	 viewBox="0 0 48 48" enable-background="new 0 0 48 48" xml:space="preserve"><g>	<path fill="#757576" d="M43.5,9.2c-0.6-0.6-1.4-0.9-2.2-0.9h-3.1V5.9c0-1.1-0.4-2-1.2-2.8C36.2,2.4,35.3,2,34.2,2h-1.6		c-1.1,0-2,0.4-2.8,1.2c-0.8,0.8-1.2,1.7-1.2,2.8v2.4h-9.4V5.9c0-1.1-0.4-2-1.2-2.8C17.4,2.4,16.4,2,15.4,2h-1.6		c-1.1,0-2,0.4-2.8,1.2c-0.8,0.8-1.2,1.7-1.2,2.8v2.4H6.7c-0.9,0-1.6,0.3-2.2,0.9c-0.6,0.6-0.9,1.4-0.9,2.2v31.4		c0,0.9,0.3,1.6,0.9,2.2C5.1,45.7,5.9,46,6.7,46h34.6c0.9,0,1.6-0.3,2.2-0.9c0.6-0.6,0.9-1.4,0.9-2.2V11.4		C44.4,10.6,44.1,9.8,43.5,9.2L43.5,9.2z M31.9,5.9c0-0.2,0.1-0.4,0.2-0.6c0.1-0.1,0.3-0.2,0.6-0.2h1.6c0.2,0,0.4,0.1,0.6,0.2		C34.9,5.5,35,5.7,35,5.9V13c0,0.2-0.1,0.4-0.2,0.6c-0.1,0.1-0.3,0.2-0.6,0.2h-1.6c-0.2,0-0.4-0.1-0.6-0.2c-0.1-0.1-0.2-0.3-0.2-0.6		V5.9z M13,5.9c0-0.2,0.1-0.4,0.2-0.6c0.1-0.1,0.3-0.2,0.6-0.2h1.6c0.2,0,0.4,0.1,0.6,0.2c0.1,0.1,0.2,0.3,0.2,0.6V13		c0,0.2-0.1,0.4-0.2,0.6c-0.1,0.1-0.3,0.2-0.6,0.2h-1.6c-0.2,0-0.4-0.1-0.6-0.2C13.1,13.4,13,13.2,13,13V5.9z M41.3,42.9H6.7V17.7		h34.6V42.9z M41.3,42.9"/></g><g>	<path fill="#757576" d="M27.7,30.4l4-4c0.3-0.3,0.4-0.6,0.4-0.9c0-0.4-0.1-0.7-0.4-0.9l-1.8-1.8c-0.3-0.3-0.6-0.4-0.9-0.4		c-0.4,0-0.7,0.1-0.9,0.4l-4,4l-4-4c-0.3-0.3-0.6-0.4-0.9-0.4c-0.4,0-0.7,0.1-0.9,0.4l-1.8,1.8c-0.3,0.3-0.4,0.6-0.4,0.9		c0,0.4,0.1,0.7,0.4,0.9l4,4l-4,4c-0.3,0.3-0.4,0.6-0.4,0.9c0,0.4,0.1,0.7,0.4,0.9l1.8,1.8c0.3,0.3,0.6,0.4,0.9,0.4		c0.4,0,0.7-0.1,0.9-0.4l4-4l4,4c0.3,0.3,0.6,0.4,0.9,0.4c0.4,0,0.7-0.1,0.9-0.4l1.8-1.8c0.3-0.3,0.4-0.6,0.4-0.9		c0-0.4-0.1-0.7-0.4-0.9L27.7,30.4z M27.7,30.4"/></g></svg>